<?xml version="1.0" encoding="UTF-8"?>
<svg xmlns="http://www.w3.org/2000/svg" xmlns:xlink="http://www.w3.org/1999/xlink" width="32px" height="32px" viewBox="0 0 32 32" version="1.1">
<g id="surface1">
<path style=" stroke:none;fill-rule:nonzero;fill:rgb(0%,0%,0%);fill-opacity:1;" d="M 9.894531 13.398438 C 9.652344 13.1875 9.28125 13.09375 8.773438 13.09375 L 8 13.09375 L 8.027344 16.347656 L 8.078125 19.613281 L 8.828125 19.585938 C 9.375 19.585938 9.667969 19.492188 9.933594 19.238281 C 10.253906 18.921875 10.28125 18.761719 10.28125 16.308594 C 10.28125 13.761719 10.253906 13.691406 9.894531 13.398438 Z M 0 6.585938 L 0 25.414062 L 32 25.414062 L 32 6.585938 Z M 11.414062 20.398438 C 10.828125 21.171875 10 21.425781 8.039062 21.425781 L 6.28125 21.425781 L 6.28125 11.375 L 8.148438 11.375 C 10.375 11.375 11.027344 11.613281 11.613281 12.574219 C 11.972656 13.148438 12 13.375 12.039062 16 C 12.105469 18.972656 12.011719 19.640625 11.414062 20.398438 Z M 18.199219 13.105469 L 14.90625 13.105469 L 14.90625 15.464844 L 16.933594 15.464844 L 16.933594 17.171875 L 15.972656 17.226562 L 14.972656 17.265625 L 14.972656 19.625 L 16.601562 19.667969 L 18.199219 19.71875 L 18.199219 21.425781 L 16.066406 21.425781 C 14.027344 21.425781 13.933594 21.414062 13.574219 21.027344 L 13.171875 20.652344 L 13.171875 16.441406 C 13.171875 12.414062 13.1875 12.199219 13.507812 11.800781 C 13.8125 11.386719 13.839844 11.386719 16.011719 11.386719 L 18.199219 11.386719 L 18.199219 13.121094 Z M 24.441406 20.375 C 24.214844 20.945312 23.585938 21.425781 23.105469 21.425781 C 22.867188 21.425781 22.507812 21.226562 22.214844 20.90625 C 21.785156 20.480469 21.613281 20.066406 21.121094 18.132812 L 19.921875 13.613281 L 19.320312 11.386719 L 20.332031 11.386719 C 20.867188 11.386719 21.332031 11.414062 21.332031 11.453125 C 21.332031 11.535156 22.878906 17.507812 23.011719 17.894531 C 23.066406 18.09375 23.441406 16.960938 23.988281 14.828125 L 24.867188 11.464844 L 25.851562 11.414062 C 26.386719 11.386719 26.828125 11.414062 26.828125 11.464844 C 26.828125 11.652344 24.601562 19.972656 24.425781 20.375 Z M 24.441406 20.375 "/>
</g>
</svg>
