<?xml version="1.0" encoding="UTF-8"?>
<svg xmlns="http://www.w3.org/2000/svg" xmlns:xlink="http://www.w3.org/1999/xlink" width="32px" height="32px" viewBox="0 0 32 32" version="1.1">
<g id="surface1">
<path style=" stroke:none;fill-rule:nonzero;fill:rgb(0%,0%,0%);fill-opacity:1;" d="M 25.5 0 L 6.5 0 C 4.773438 -0.00390625 3.121094 0.679688 1.898438 1.898438 C 0.679688 3.121094 -0.00390625 4.773438 0 6.5 L 0 25.5 C 0 29.101562 2.898438 32 6.5 32 L 15.300781 32 C 18.898438 32 21.800781 29.101562 21.800781 25.5 L 21.800781 22.199219 L 25.5 22.199219 C 29.101562 22.199219 32 19.300781 32 15.699219 L 32 6.5 C 32 2.898438 29.101562 0 25.5 0 Z M 22 1.699219 L 25.5 1.699219 C 28.152344 1.699219 30.300781 3.847656 30.300781 6.5 L 30.300781 10.101562 L 22 10.101562 Z M 20.101562 12 L 20.101562 20.601562 L 11.800781 20.601562 L 11.800781 12 Z M 11.800781 1.601562 L 20.101562 1.601562 L 20.101562 10.101562 L 11.800781 10.101562 Z M 1.699219 6.398438 C 1.699219 3.75 3.847656 1.601562 6.5 1.601562 L 10 1.601562 L 10 10.101562 L 1.699219 10.101562 Z M 10 12 L 10 20.601562 L 1.601562 20.601562 L 1.601562 12 Z M 10 30.300781 L 6.398438 30.300781 C 3.75 30.300781 1.601562 28.152344 1.601562 25.5 L 1.601562 22.398438 L 10 22.398438 Z M 20.101562 25.601562 C 20.101562 28.25 17.949219 30.398438 15.300781 30.398438 L 11.800781 30.398438 L 11.800781 22.5 L 20.101562 22.5 Z M 30.300781 15.800781 C 30.300781 18.449219 28.152344 20.601562 25.5 20.601562 L 22 20.601562 L 22 12 L 30.300781 12 Z M 30.300781 15.800781 "/>
</g>
</svg>
