<?xml version="1.0" encoding="UTF-8"?>
<svg xmlns="http://www.w3.org/2000/svg" xmlns:xlink="http://www.w3.org/1999/xlink" width="32px" height="32px" viewBox="0 0 32 32" version="1.1">
<g id="surface1">
<path style=" stroke:none;fill-rule:nonzero;fill:rgb(0%,0%,0%);fill-opacity:1;" d="M 31.9375 6.09375 C 32.597656 -0.585938 38.121094 -5.734375 44.828125 -5.921875 C 51.539062 -6.113281 57.34375 -1.285156 58.378906 5.347656 C 59.414062 11.976562 55.363281 18.34375 48.914062 20.210938 C 42.46875 22.078125 35.636719 18.863281 32.96875 12.703125 C 31.703125 13.445312 30.296875 13.984375 28.800781 14.28125 C 30.40625 12.792969 32.648438 12.199219 34.777344 12.703125 C 10.253906 10.792969 5.421875 8.171875 2.1875 4.214844 C 3.75 4.902344 4.980469 6.183594 5.597656 7.773438 C 6.21875 9.367188 6.175781 11.140625 5.488281 12.703125 C 5.488281 14.984375 6.648438 16.988281 8.402344 18.164062 C 7.535156 21.105469 4.742188 23.050781 1.683594 22.839844 C -1.375 22.628906 -3.878906 20.320312 -4.332031 17.289062 C -4.789062 14.257812 -3.078125 11.316406 -0.214844 10.214844 C 2.644531 9.113281 5.890625 10.148438 7.582031 12.703125 L 7.582031 12.785156 C 7.636719 9.183594 10.578125 6.300781 14.179688 6.316406 C 17.777344 6.335938 20.691406 9.25 20.710938 12.847656 C 20.726562 16.449219 17.84375 19.390625 14.242188 19.445312 L 20.824219 19.445312 C 23.222656 20.761719 26.34375 20.746094 28.355469 19.402344 C 30.371094 18.0625 30.75 15.746094 29.273438 13.816406 C 27.792969 11.886719 24.847656 10.847656 22.160156 11.308594 C 21.636719 11.308594 21.121094 11.277344 20.597656 11.21875 C 29.710938 13.492188 35.714844 22.183594 34.613281 31.511719 C 33.511719 40.839844 25.652344 47.894531 16.257812 47.984375 C 6.867188 48.074219 -1.125 41.167969 -2.40625 31.863281 C -3.683594 22.5625 2.152344 13.757812 11.21875 11.308594 C 23.289062 11.308594 29.882812 1.316406 29.882812 -7.335938 C 29.882812 -7.617188 29.882812 -7.898438 29.863281 -8.175781 C 35.246094 2.328125 31.089844 15.207031 20.585938 20.585938 C 10.082031 25.96875 -2.796875 21.8125 -8.175781 11.308594 Z M 31.9375 6.09375 "/>
</g>
</svg>
